<?xml version="1.0" standalone="no"?>
<svg viewBox="0 0 200 200" xmlns="http://www.w3.org/2000/svg">
  <path fill="#FF0066" d="M40.2,-47.4C54.6,-44.8,70.6,-36.5,79.4,-22.7C88.2,-8.8,89.9,10.5,81.5,23.4C73,36.3,54.5,42.9,39.3,51.1C24,59.2,12,68.9,-1.6,71.1C-15.1,73.3,-30.3,67.9,-45.4,59.7C-60.6,51.5,-75.7,40.5,-81.2,25.9C-86.7,11.2,-82.5,-7.1,-73.2,-20.1C-63.9,-33.1,-49.5,-40.7,-36.5,-43.7C-23.4,-46.7,-11.7,-45.1,0.6,-45.9C12.9,-46.7,25.7,-49.9,40.2,-47.4Z" transform="translate(100 100)" />
</svg>
