<svg xmlns="http://www.w3.org/2000/svg" version="1.1" xmlns:xlink="http://www.w3.org/1999/xlink" xmlns:svgjs="http://svgjs.com/svgjs" width="1440" height="250" preserveAspectRatio="none" viewBox="0 0 1440 250"><g mask="url(&quot;#SvgjsMask1006&quot;)" fill="none"><path d="M28 250L278 0L341 0L91 250z" fill="url(#SvgjsLinearGradient1007)"></path><path d="M262.6 250L512.6 0L563.6 0L313.6 250z" fill="url(#SvgjsLinearGradient1007)"></path><path d="M479.20000000000005 250L729.2 0L870.2 0L620.2 250z" fill="url(#SvgjsLinearGradient1007)"></path><path d="M739.8000000000001 250L989.8000000000001 0L1193.8000000000002 0L943.8000000000001 250z" fill="url(#SvgjsLinearGradient1007)"></path><path d="M1437 250L1187 0L974 0L1224 250z" fill="url(#SvgjsLinearGradient1008)"></path><path d="M1186.4 250L936.4000000000001 0L670.9000000000001 0L920.9000000000001 250z" fill="url(#SvgjsLinearGradient1008)"></path><path d="M926.8 250L676.8 0L349.79999999999995 0L599.8 250z" fill="url(#SvgjsLinearGradient1008)"></path><path d="M710.1999999999999 250L460.19999999999993 0L145.19999999999993 0L395.19999999999993 250z" fill="url(#SvgjsLinearGradient1008)"></path><path d="M1216.1787129577635 250L1440 26.17871295776351L1440 250z" fill="url(#SvgjsLinearGradient1007)"></path><path d="M0 250L223.8212870422365 250L 0 26.17871295776351z" fill="url(#SvgjsLinearGradient1008)"></path></g><defs><mask id="SvgjsMask1006"><rect width="1440" height="250" fill="#ffffff"></rect></mask><linearGradient x1="0%" y1="100%" x2="100%" y2="0%" id="SvgjsLinearGradient1007"><stop stop-color="rgba(233, 69, 96, 1)" offset="0"></stop><stop stop-opacity="0" stop-color="rgba(233, 69, 96, 1)" offset="0.66"></stop></linearGradient><linearGradient x1="100%" y1="100%" x2="0%" y2="0%" id="SvgjsLinearGradient1008"><stop stop-color="rgba(233, 69, 96, 1)" offset="0"></stop><stop stop-opacity="0" stop-color="rgba(233, 69, 96, 1)" offset="0.66"></stop></linearGradient></defs></svg>